<svg width="414" height="196" viewBox="0 0 414 196" fill="none" xmlns="http://www.w3.org/2000/svg">
<path d="M0.593018 112.844L0.593018 83.1194H64.0935V88.0736H22.2544C22.2544 97.7471 22.2544 106.514 22.2544 109.817C22.2544 113.119 24.3315 112.844 27.2988 112.844L27.2988 160.734H17.21L0.593018 112.844Z" fill="url(#paint0_linear_7_209)"/>
<path fill-rule="evenodd" clip-rule="evenodd" d="M0.593018 80.3663L0.593018 54.4948H64.0951V61.1003L159.049 61.1003V54.4948L390.281 54.4948V80.3663L159.049 80.3663V71.5591H158.451V67.1559H156.671V71.5591H144.211V67.1559H142.431V71.5591L129.97 71.5591V67.1559H128.19V71.5591H115.725V67.1559H113.945V71.5591H101.48V67.1559H99.6994V71.5591H87.239V67.1559H85.4586V71.5591H72.9979V67.1559H71.2175V71.5591H64.0951L64.0951 71.5595V77.0641L64.0951 80.3663H0.593018ZM327.066 77.0603V67.1521H328.846V77.0603H327.066ZM341.081 67.0002V76.9084H342.862V67.0002H341.081ZM355.097 76.9103V67.002H356.877V76.9103H355.097ZM369.113 67.002V76.9103H370.893V67.002H369.113ZM383.128 76.9103V67.002H384.909V76.9103H383.128ZM320.203 71.5557V77.0603H321.984V71.5557H320.203ZM334.219 76.9084V71.4039H335.999V76.9084H334.219ZM348.234 71.4057V76.9103H350.015V71.4057H348.234ZM362.25 76.9103V71.4057H364.03V76.9103H362.25ZM376.266 71.4057V76.9103H378.046V71.4057H376.266ZM306.224 77.0643V71.5598H308.004V77.0643H306.224ZM313.335 67.1563V77.0646H315.116V67.1563H313.335ZM299.107 77.0641V67.1559H300.887V77.0641H299.107ZM284.862 67.1559V77.0641H286.642V67.1559H284.862ZM270.615 77.0641V67.1559H272.396V77.0641H270.615ZM256.38 67.1559V77.0641H258.16V67.1559H256.38ZM242.134 77.0641V67.1559H243.915V77.0641H242.134ZM227.889 67.1559V77.0641H229.67V67.1559H227.889ZM213.643 77.0641V67.1559H215.424V77.0641H213.643ZM199.4 67.1559V77.0641H201.18V67.1559H199.4ZM185.162 77.0641V67.1559H186.943V77.0641H185.162ZM170.917 67.1559V77.0641H172.698V67.1559H170.917ZM56.9723 67.1559V77.0641H58.7527V67.1559H56.9723ZM42.7271 77.0641V67.1559H44.5074V77.0641H42.7271ZM28.4862 67.1559V77.0641H30.2666V67.1559H28.4862ZM14.2404 77.0641V67.1559H16.0208V77.0641H14.2404ZM291.977 71.56V77.0646H293.757V71.56H291.977ZM277.743 77.0641V71.5595H279.523V77.0641H277.743ZM263.499 71.5595V77.0641H265.279V71.5595H263.499ZM249.252 77.0641V71.5595H251.033V77.0641H249.252ZM235.007 71.5595V77.0641H236.788V71.5595H235.007ZM220.771 77.0641V71.5595H222.551V77.0641H220.771ZM206.526 71.5595V77.0641H208.307V71.5595H206.526ZM192.28 77.0641V71.5595H194.061V77.0641H192.28ZM178.038 71.5595V77.0641H179.818V71.5595H178.038ZM163.795 77.0641V71.5595H165.575V77.0641H163.795ZM49.8498 77.0641V71.5595H51.6302V77.0641H49.8498ZM35.6087 71.5595V77.0641H37.3891V71.5595H35.6087ZM21.3635 77.0641V71.5595H23.1439V77.0641H21.3635ZM7.12269 71.5594L7.12269 77.064H8.90308V71.5594H7.12269Z" fill="url(#paint1_linear_7_209)"/>
<rect x="393.516" y="64.0002" width="20.4844" height="5" fill="url(#paint2_linear_7_209)"/>
<path d="M104.658 112.514V96.2755L82.9967 96.0003C82.9967 105.674 82.9967 105.909 82.9967 109.211C82.9967 112.514 79.0393 112.514 77.625 112.514V160.404H87.7443L104.658 112.514Z" fill="url(#paint3_linear_7_209)"/>
<path d="M0 51.7437L0 34.129H64.0939V36.3308V51.7437L0 51.7437Z" fill="url(#paint4_linear_7_209)"/>
<path d="M22.5511 32.0001L13.1405 32L13.1405 15.7477L11.5721 14.8964V3.8147e-05L16.6695 1.70248L22.5511 21.7062L22.5511 32.0001Z" fill="url(#paint5_linear_7_209)"/>
<path d="M61.4286 32V29.9123V13.6636L63 12.9251V-1.79374e-07L57.8929 1.47715L52 18.8337V29.9123V32H61.4286Z" fill="url(#paint6_linear_7_209)"/>
<rect x="67.0608" y="92.4769" width="17.6146" height="89.0193" transform="rotate(-90 67.0608 92.4769)" fill="url(#paint7_linear_7_209)"/>
<rect x="67.0608" y="57.7987" width="18.7156" height="89.0193" transform="rotate(-90 67.0608 57.7987)" fill="url(#paint8_linear_7_209)"/>
<path d="M132.926 104.038C128.67 104.038 125.219 100.587 125.219 96.3312V96.3312H145.397V96.3312C145.397 100.587 141.947 104.038 137.691 104.038H132.926Z" fill="url(#paint9_linear_7_209)"/>
<path d="M112.415 22.5686C109.653 22.5686 107.415 24.8072 107.415 27.5686V35.2291H120.471V27.5686C120.471 24.8072 118.232 22.5686 115.471 22.5686H112.415Z" fill="url(#paint10_linear_7_209)"/>
<path d="M159.562 88.0002V83.0002L390.82 83.0002V88.0002L159.562 88.0002Z" fill="url(#paint11_linear_7_209)"/>
<rect x="159.562" y="51.0002" width="5" height="230.719" transform="rotate(-90 159.562 51.0002)" fill="url(#paint12_linear_7_209)"/>
<path d="M58.4146 114.57V175H46.0049V114.57H58.4146ZM77.0083 114.57V124.324H27.7017V114.57H77.0083ZM74.2275 153.003V152.131C74.2275 148.839 74.6979 145.809 75.6387 143.042C76.5794 140.247 77.9491 137.826 79.7476 135.779C81.5461 133.731 83.7596 132.14 86.3882 131.006C89.0168 129.844 92.0327 129.263 95.436 129.263C98.8394 129.263 101.869 129.844 104.525 131.006C107.182 132.14 109.409 133.731 111.208 135.779C113.034 137.826 114.417 140.247 115.358 143.042C116.299 145.809 116.769 148.839 116.769 152.131V153.003C116.769 156.268 116.299 159.298 115.358 162.092C114.417 164.859 113.034 167.28 111.208 169.355C109.409 171.403 107.195 172.994 104.567 174.128C101.938 175.263 98.9224 175.83 95.519 175.83C92.1157 175.83 89.0859 175.263 86.4297 174.128C83.8011 172.994 81.5737 171.403 79.7476 169.355C77.9491 167.28 76.5794 164.859 75.6387 162.092C74.6979 159.298 74.2275 156.268 74.2275 153.003ZM86.1807 152.131V153.003C86.1807 154.884 86.3467 156.641 86.6787 158.274C87.0107 159.906 87.5365 161.345 88.2559 162.59C89.0029 163.808 89.9714 164.762 91.1611 165.454C92.3509 166.146 93.8035 166.492 95.519 166.492C97.1792 166.492 98.6042 166.146 99.7939 165.454C100.984 164.762 101.938 163.808 102.658 162.59C103.377 161.345 103.903 159.906 104.235 158.274C104.595 156.641 104.774 154.884 104.774 153.003V152.131C104.774 150.305 104.595 148.59 104.235 146.985C103.903 145.352 103.363 143.914 102.616 142.668C101.897 141.396 100.942 140.4 99.7524 139.68C98.5627 138.961 97.1239 138.601 95.436 138.601C93.7482 138.601 92.3094 138.961 91.1196 139.68C89.9575 140.4 89.0029 141.396 88.2559 142.668C87.5365 143.914 87.0107 145.352 86.6787 146.985C86.3467 148.59 86.1807 150.305 86.1807 152.131ZM136.068 139.888V175H124.115V130.093H135.363L136.068 139.888ZM149.599 129.802L149.391 140.884C148.81 140.801 148.104 140.732 147.274 140.676C146.472 140.593 145.739 140.552 145.075 140.552C143.387 140.552 141.92 140.773 140.675 141.216C139.458 141.631 138.434 142.253 137.604 143.083C136.802 143.914 136.193 144.924 135.778 146.113C135.39 147.303 135.169 148.659 135.114 150.181L132.707 149.434C132.707 146.528 132.997 143.858 133.578 141.423C134.159 138.961 135.003 136.816 136.11 134.99C137.244 133.164 138.628 131.753 140.26 130.757C141.893 129.761 143.76 129.263 145.863 129.263C146.527 129.263 147.205 129.318 147.897 129.429C148.589 129.512 149.156 129.636 149.599 129.802Z" fill="white"/>
<path d="M205.172 114.57V175H192.721L168.441 134.492V175H155.99V114.57H168.441L192.763 155.12V114.57H205.172ZM213.349 153.003V152.131C213.349 148.839 213.819 145.809 214.76 143.042C215.701 140.247 217.07 137.826 218.869 135.779C220.667 133.731 222.881 132.14 225.509 131.006C228.138 129.844 231.154 129.263 234.557 129.263C237.96 129.263 240.99 129.844 243.646 131.006C246.303 132.14 248.53 133.731 250.329 135.779C252.155 137.826 253.538 140.247 254.479 143.042C255.42 145.809 255.89 148.839 255.89 152.131V153.003C255.89 156.268 255.42 159.298 254.479 162.092C253.538 164.859 252.155 167.28 250.329 169.355C248.53 171.403 246.317 172.994 243.688 174.128C241.059 175.263 238.043 175.83 234.64 175.83C231.237 175.83 228.207 175.263 225.551 174.128C222.922 172.994 220.695 171.403 218.869 169.355C217.07 167.28 215.701 164.859 214.76 162.092C213.819 159.298 213.349 156.268 213.349 153.003ZM225.302 152.131V153.003C225.302 154.884 225.468 156.641 225.8 158.274C226.132 159.906 226.658 161.345 227.377 162.59C228.124 163.808 229.092 164.762 230.282 165.454C231.472 166.146 232.925 166.492 234.64 166.492C236.3 166.492 237.725 166.146 238.915 165.454C240.105 164.762 241.059 163.808 241.779 162.59C242.498 161.345 243.024 159.906 243.356 158.274C243.716 156.641 243.896 154.884 243.896 153.003V152.131C243.896 150.305 243.716 148.59 243.356 146.985C243.024 145.352 242.484 143.914 241.737 142.668C241.018 141.396 240.063 140.4 238.874 139.68C237.684 138.961 236.245 138.601 234.557 138.601C232.869 138.601 231.431 138.961 230.241 139.68C229.079 140.4 228.124 141.396 227.377 142.668C226.658 143.914 226.132 145.352 225.8 146.985C225.468 148.59 225.302 150.305 225.302 152.131ZM285.233 130.093V138.56H259.086V130.093H285.233ZM265.561 119.011H277.514V161.47C277.514 162.77 277.68 163.766 278.012 164.458C278.371 165.15 278.897 165.634 279.589 165.911C280.281 166.16 281.152 166.284 282.204 166.284C282.951 166.284 283.615 166.257 284.196 166.201C284.805 166.118 285.316 166.035 285.731 165.952L285.773 174.751C284.749 175.083 283.642 175.346 282.453 175.54C281.263 175.733 279.949 175.83 278.51 175.83C275.881 175.83 273.585 175.401 271.62 174.543C269.683 173.658 268.189 172.247 267.138 170.31C266.086 168.373 265.561 165.828 265.561 162.673V119.011ZM312.709 175.83C309.223 175.83 306.096 175.277 303.329 174.17C300.562 173.035 298.21 171.472 296.273 169.48C294.364 167.488 292.898 165.177 291.874 162.549C290.85 159.893 290.338 157.07 290.338 154.082V152.422C290.338 149.019 290.823 145.906 291.791 143.083C292.759 140.261 294.143 137.812 295.941 135.737C297.768 133.662 299.981 132.071 302.582 130.964C305.183 129.83 308.116 129.263 311.381 129.263C314.563 129.263 317.385 129.788 319.848 130.84C322.31 131.891 324.372 133.385 326.032 135.322C327.72 137.259 328.992 139.583 329.85 142.295C330.708 144.979 331.137 147.967 331.137 151.26V156.24H295.443V148.271H319.391V147.358C319.391 145.698 319.087 144.218 318.478 142.917C317.897 141.589 317.012 140.538 315.822 139.763C314.632 138.988 313.11 138.601 311.256 138.601C309.679 138.601 308.323 138.947 307.189 139.639C306.055 140.33 305.128 141.299 304.408 142.544C303.716 143.789 303.191 145.256 302.831 146.943C302.499 148.604 302.333 150.43 302.333 152.422V154.082C302.333 155.881 302.582 157.541 303.08 159.062C303.606 160.584 304.339 161.899 305.28 163.005C306.248 164.112 307.41 164.97 308.766 165.579C310.15 166.187 311.713 166.492 313.456 166.492C315.614 166.492 317.62 166.077 319.474 165.247C321.356 164.389 322.974 163.102 324.33 161.387L330.141 167.695C329.2 169.051 327.913 170.352 326.281 171.597C324.676 172.842 322.739 173.866 320.47 174.668C318.201 175.443 315.614 175.83 312.709 175.83ZM362.223 162.59C362.223 161.733 361.974 160.958 361.476 160.266C360.978 159.574 360.051 158.938 358.695 158.357C357.367 157.748 355.444 157.195 352.926 156.697C350.657 156.199 348.541 155.576 346.576 154.829C344.639 154.054 342.951 153.127 341.513 152.048C340.102 150.969 338.995 149.696 338.192 148.23C337.39 146.736 336.989 145.034 336.989 143.125C336.989 141.243 337.39 139.473 338.192 137.812C339.022 136.152 340.198 134.686 341.72 133.413C343.27 132.113 345.151 131.103 347.365 130.383C349.606 129.636 352.124 129.263 354.918 129.263C358.82 129.263 362.168 129.885 364.962 131.13C367.785 132.375 369.943 134.091 371.437 136.277C372.959 138.435 373.72 140.898 373.72 143.665H361.767C361.767 142.502 361.518 141.465 361.02 140.552C360.549 139.611 359.802 138.878 358.778 138.352C357.782 137.799 356.482 137.522 354.877 137.522C353.549 137.522 352.401 137.757 351.432 138.228C350.464 138.67 349.717 139.279 349.191 140.054C348.693 140.801 348.444 141.631 348.444 142.544C348.444 143.236 348.582 143.858 348.859 144.412C349.163 144.937 349.647 145.422 350.312 145.864C350.976 146.307 351.833 146.722 352.885 147.109C353.964 147.469 355.292 147.801 356.869 148.105C360.106 148.77 362.998 149.641 365.543 150.72C368.089 151.772 370.109 153.21 371.603 155.037C373.097 156.835 373.844 159.201 373.844 162.134C373.844 164.126 373.402 165.952 372.516 167.612C371.631 169.272 370.358 170.725 368.698 171.97C367.038 173.188 365.045 174.142 362.721 174.834C360.425 175.498 357.838 175.83 354.96 175.83C350.782 175.83 347.24 175.083 344.335 173.589C341.457 172.095 339.271 170.199 337.777 167.903C336.311 165.579 335.578 163.199 335.578 160.764H346.908C346.964 162.397 347.379 163.711 348.153 164.707C348.956 165.703 349.966 166.423 351.183 166.865C352.428 167.308 353.77 167.529 355.209 167.529C356.758 167.529 358.045 167.322 359.069 166.907C360.093 166.464 360.867 165.883 361.393 165.164C361.946 164.417 362.223 163.559 362.223 162.59Z" fill="url(#paint13_linear_7_209)"/>
<defs>
<linearGradient id="paint0_linear_7_209" x1="0.593018" y1="121.927" x2="64.0935" y2="121.927" gradientUnits="userSpaceOnUse">
<stop stop-color="#334155"/>
<stop offset="1" stop-color="#334155" stop-opacity="0.76"/>
</linearGradient>
<linearGradient id="paint1_linear_7_209" x1="0.593018" y1="67.4306" x2="390.281" y2="67.4306" gradientUnits="userSpaceOnUse">
<stop stop-color="#334155"/>
<stop offset="1" stop-color="#334155" stop-opacity="0.76"/>
</linearGradient>
<linearGradient id="paint2_linear_7_209" x1="403.758" y1="64.0002" x2="403.758" y2="69.0002" gradientUnits="userSpaceOnUse">
<stop stop-color="#334155"/>
<stop offset="1" stop-color="#334155" stop-opacity="0.76"/>
</linearGradient>
<linearGradient id="paint3_linear_7_209" x1="104.658" y1="128.202" x2="77.625" y2="128.202" gradientUnits="userSpaceOnUse">
<stop stop-color="#334155"/>
<stop offset="1" stop-color="#334155" stop-opacity="0.76"/>
</linearGradient>
<linearGradient id="paint4_linear_7_209" x1="0" y1="42.9363" x2="64.0939" y2="42.9363" gradientUnits="userSpaceOnUse">
<stop stop-color="#334155"/>
<stop offset="1" stop-color="#334155" stop-opacity="0.76"/>
</linearGradient>
<linearGradient id="paint5_linear_7_209" x1="11.5721" y1="16" x2="22.5511" y2="16" gradientUnits="userSpaceOnUse">
<stop stop-color="#334155"/>
<stop offset="1" stop-color="#334155" stop-opacity="0.76"/>
</linearGradient>
<linearGradient id="paint6_linear_7_209" x1="63" y1="16" x2="52" y2="16" gradientUnits="userSpaceOnUse">
<stop stop-color="#334155"/>
<stop offset="1" stop-color="#334155" stop-opacity="0.76"/>
</linearGradient>
<linearGradient id="paint7_linear_7_209" x1="75.8681" y1="92.4769" x2="75.8681" y2="181.496" gradientUnits="userSpaceOnUse">
<stop stop-color="#334155"/>
<stop offset="1" stop-color="#334155" stop-opacity="0.76"/>
</linearGradient>
<linearGradient id="paint8_linear_7_209" x1="76.4185" y1="57.7987" x2="76.4185" y2="146.818" gradientUnits="userSpaceOnUse">
<stop stop-color="#334155"/>
<stop offset="1" stop-color="#334155" stop-opacity="0.76"/>
</linearGradient>
<linearGradient id="paint9_linear_7_209" x1="125.219" y1="100.184" x2="145.397" y2="100.184" gradientUnits="userSpaceOnUse">
<stop stop-color="#334155"/>
<stop offset="1" stop-color="#334155" stop-opacity="0.76"/>
</linearGradient>
<linearGradient id="paint10_linear_7_209" x1="107.415" y1="28.8989" x2="120.471" y2="28.8989" gradientUnits="userSpaceOnUse">
<stop stop-color="#334155"/>
<stop offset="1" stop-color="#334155" stop-opacity="0.76"/>
</linearGradient>
<linearGradient id="paint11_linear_7_209" x1="159.562" y1="85.5002" x2="390.82" y2="85.5002" gradientUnits="userSpaceOnUse">
<stop stop-color="#334155"/>
<stop offset="1" stop-color="#334155" stop-opacity="0.76"/>
</linearGradient>
<linearGradient id="paint12_linear_7_209" x1="162.062" y1="51.0002" x2="162.063" y2="281.719" gradientUnits="userSpaceOnUse">
<stop stop-color="#334155"/>
<stop offset="1" stop-color="#334155" stop-opacity="0.76"/>
</linearGradient>
<linearGradient id="paint13_linear_7_209" x1="201.5" y1="96" x2="201.5" y2="196" gradientUnits="userSpaceOnUse">
<stop stop-color="#FB923C"/>
<stop offset="1" stop-color="#FB923C" stop-opacity="0.77"/>
</linearGradient>
</defs>
</svg>
